<svg width="25" height="25" viewBox="0 0 25 25" fill="none" xmlns="http://www.w3.org/2000/svg">
<path d="M13.1161 3.49996L22.6421 20C22.7299 20.152 22.7761 20.3244 22.7761 20.5C22.7761 20.6755 22.7299 20.8479 22.6421 20.9999C22.5543 21.152 22.4281 21.2782 22.2761 21.366C22.1241 21.4537 21.9516 21.5 21.7761 21.5H2.7241C2.54856 21.5 2.37612 21.4537 2.2241 21.366C2.07209 21.2782 1.94585 21.152 1.85809 20.9999C1.77032 20.8479 1.72412 20.6755 1.72412 20.5C1.72412 20.3244 1.77033 20.152 1.8581 20L11.3841 3.49996C11.4719 3.34795 11.5981 3.22172 11.7501 3.13396C11.9021 3.0462 12.0746 3 12.2501 3C12.4256 3 12.5981 3.0462 12.7501 3.13396C12.9021 3.22172 13.0283 3.34795 13.1161 3.49996ZM4.4561 19.5H20.0441L12.2501 5.99996L4.4561 19.5ZM11.2501 16.5H13.2501V18.5H11.2501V16.5ZM11.2501 9.49996H13.2501V14.5H11.2501V9.49996Z" fill="#1A365D" fill-opacity="0.5"/>
</svg>
