<svg width="32" height="32" viewBox="0 0 32 32" fill="none" xmlns="http://www.w3.org/2000/svg">
<path d="M15.9999 2.6665C17.1534 2.66651 18.2586 2.89227 19.2734 3.30029C18.6282 3.94907 18.1159 4.72939 17.7802 5.59814C17.2154 5.42631 16.6177 5.33253 15.9999 5.33252C12.8841 5.33252 10.2661 7.67625 9.92179 10.7729L9.58683 13.7944C9.58271 13.8316 9.57957 13.8538 9.57707 13.8755C9.38366 15.5609 8.83524 17.1871 7.96769 18.645C7.95645 18.6639 7.94499 18.6832 7.9257 18.7153L7.15519 19.9995C6.79067 20.6071 6.5704 20.9774 6.44035 21.2534C6.43381 21.2673 6.42833 21.2811 6.42277 21.2935C6.43672 21.2951 6.4518 21.2987 6.46769 21.3003C6.77126 21.3308 7.20091 21.3325 7.9091 21.3325H24.0907C24.7989 21.3325 25.2286 21.3308 25.5321 21.3003C25.5476 21.2987 25.5624 21.2951 25.5761 21.2935C25.5706 21.2812 25.566 21.2672 25.5595 21.2534C25.4294 20.9773 25.2092 20.6071 24.8446 19.9995L24.0741 18.7153C24.0548 18.6831 24.0434 18.6639 24.0321 18.645C23.2716 17.3669 22.7555 15.9599 22.5097 14.4966C22.989 14.6061 23.4874 14.6665 23.9999 14.6665C24.4228 14.6665 24.8362 14.6246 25.2372 14.5493C25.4524 15.5095 25.8188 16.4315 26.3241 17.2808C26.3324 17.2947 26.3409 17.3094 26.3612 17.3433L27.1318 18.6274C27.4664 19.1851 27.7708 19.6905 27.9716 20.1167C28.1691 20.536 28.3807 21.1045 28.2792 21.7485C28.1788 22.3851 27.8505 22.9637 27.3564 23.3774C26.8564 23.7959 26.2609 23.9072 25.7997 23.9536C25.331 24.0008 24.7411 23.9995 24.0907 23.9995H7.9091C7.2587 23.9995 6.66889 24.0008 6.20011 23.9536C5.73897 23.9072 5.14347 23.7959 4.64347 23.3774C4.14926 22.9637 3.82109 22.3852 3.72062 21.7485C3.61911 21.1045 3.83078 20.536 4.02824 20.1167C4.22904 19.6905 4.5335 19.1851 4.86808 18.6274L5.63859 17.3433C5.65886 17.3095 5.66743 17.2947 5.6757 17.2808C6.35044 16.1469 6.77723 14.8826 6.92765 13.5718C6.9295 13.5558 6.9321 13.5386 6.93644 13.4995L7.2714 10.478C7.76576 6.03088 11.5253 2.6665 15.9999 2.6665ZM22.6435 5.70654C23.7709 7.00944 24.5255 8.65201 24.7284 10.478L24.7372 10.562C24.5031 10.6293 24.2557 10.6665 23.9999 10.6665L23.7265 10.6528C22.9206 10.5708 22.2232 10.1281 21.7919 9.49072C21.6845 9.17239 21.5528 8.86628 21.3974 8.57471C21.3567 8.38963 21.333 8.19778 21.3329 8.00049C21.3329 7.0236 21.8599 6.17111 22.6435 5.70654Z" fill="white"/>
<path d="M12.1363 23.5529C12.3642 24.8287 12.8664 25.9561 13.565 26.7601C14.2635 27.5642 15.1195 28 16 28C16.8805 28 17.7365 27.5642 18.435 26.7601C19.1336 25.9561 19.6358 24.8287 19.8637 23.5529" stroke="white" stroke-width="2.66667" stroke-linecap="round"/>
<circle cx="24.0002" cy="8.00016" r="3.33333" fill="#FF5C02" stroke="#FF5C02" stroke-width="1.33333"/>
</svg>
