<svg width="26" height="20" viewBox="0 0 26 20" fill="none" xmlns="http://www.w3.org/2000/svg">
<g clip-path="url(#clip0_1881_892)">
<path d="M2.55063 1.64463C2.66782 1.40635 2.92563 1.26963 3.18735 1.30479L12.7498 2.5001L22.3123 1.30479C22.5741 1.27354 22.8319 1.41026 22.9491 1.64463L24.578 4.90244C24.9295 5.60166 24.5545 6.44932 23.8045 6.66416L17.4217 8.48838C16.8788 8.64463 16.2967 8.41416 16.0077 7.92979L12.7498 2.5001L9.49204 7.92979C9.20298 8.41416 8.62094 8.64463 8.07797 8.48838L1.69907 6.66416C0.945162 6.44932 0.574069 5.60166 0.925631 4.90244L2.55063 1.64463ZM12.7928 5.0001L14.9373 8.57041C15.5194 9.53916 16.6795 10.0001 17.7694 9.6876L22.7498 8.26573V14.7892C22.7498 15.6485 22.1639 16.3985 21.328 16.6095L13.3553 18.6017C12.9569 18.7032 12.5389 18.7032 12.1444 18.6017L4.17173 16.6095C3.33579 16.3946 2.74985 15.6446 2.74985 14.7853V8.26182L7.73423 9.6876C8.82016 10.0001 9.98423 9.53916 10.5663 8.57041L12.7069 5.0001H12.7928Z" fill="white"/>
</g>
<defs>
<clipPath id="clip0_1881_892">
<rect width="25" height="20" fill="white" transform="translate(0.25)"/>
</clipPath>
</defs>
</svg>
