<svg width="21" height="20" viewBox="0 0 21 20" fill="none" xmlns="http://www.w3.org/2000/svg">
<path d="M13.2501 3.3335C13.6921 3.3335 14.116 3.50909 14.4286 3.82165C14.7412 4.13421 14.9167 4.55814 14.9167 5.00016V5.8335H16.1834C16.4332 5.83353 16.6798 5.88971 16.905 5.99789C17.1302 6.10608 17.3281 6.26349 17.4842 6.4585L18.7176 8.001C18.9543 8.29657 19.0834 8.66396 19.0834 9.04266V12.5002C19.0834 12.9422 18.9078 13.3661 18.5953 13.6787C18.2827 13.9912 17.8588 14.1668 17.4167 14.1668H16.5834C16.5834 14.8299 16.32 15.4658 15.8512 15.9346C15.3823 16.4034 14.7465 16.6668 14.0834 16.6668C13.4204 16.6668 12.7845 16.4034 12.3156 15.9346C11.8468 15.4658 11.5834 14.8299 11.5834 14.1668H9.08341C9.08341 14.4951 9.01875 14.8202 8.89311 15.1235C8.76748 15.4269 8.58333 15.7024 8.35118 15.9346C8.11904 16.1667 7.84344 16.3509 7.54012 16.4765C7.23681 16.6022 6.91172 16.6668 6.58341 16.6668C6.25511 16.6668 5.93002 16.6022 5.62671 16.4765C5.32339 16.3509 5.04779 16.1667 4.81565 15.9346C4.5835 15.7024 4.39935 15.4269 4.27372 15.1235C4.14808 14.8202 4.08341 14.4951 4.08341 14.1668C3.64139 14.1668 3.21746 13.9912 2.9049 13.6787C2.59234 13.3661 2.41675 12.9422 2.41675 12.5002V5.00016C2.41675 4.55814 2.59234 4.13421 2.9049 3.82165C3.21746 3.50909 3.64139 3.3335 4.08341 3.3335H13.2501ZM6.58341 13.3335C6.3624 13.3335 6.15044 13.4213 5.99416 13.5776C5.83788 13.7339 5.75008 13.9458 5.75008 14.1668C5.75008 14.3878 5.83788 14.5998 5.99416 14.7561C6.15044 14.9124 6.3624 15.0002 6.58341 15.0002C6.80443 15.0002 7.01639 14.9124 7.17267 14.7561C7.32895 14.5998 7.41675 14.3878 7.41675 14.1668C7.41675 13.9458 7.32895 13.7339 7.17267 13.5776C7.01639 13.4213 6.80443 13.3335 6.58341 13.3335ZM14.0834 13.3335C13.8624 13.3335 13.6504 13.4213 13.4942 13.5776C13.3379 13.7339 13.2501 13.9458 13.2501 14.1668C13.2501 14.3878 13.3379 14.5998 13.4942 14.7561C13.6504 14.9124 13.8624 15.0002 14.0834 15.0002C14.3044 15.0002 14.5164 14.9124 14.6727 14.7561C14.829 14.5998 14.9167 14.3878 14.9167 14.1668C14.9167 13.9458 14.829 13.7339 14.6727 13.5776C14.5164 13.4213 14.3044 13.3335 14.0834 13.3335ZM16.1834 7.50016H14.9167V10.8335H17.4167V9.04183L16.1834 7.50016Z" fill="white"/>
</svg>
