<svg width="24" height="24" viewBox="0 0 24 24" fill="none" xmlns="http://www.w3.org/2000/svg">
<path fill-rule="evenodd" clip-rule="evenodd" d="M12.2475 20.9695C13.3976 19.9259 14.462 18.7916 15.4305 17.5775C17.4705 15.0145 18.7115 12.4875 18.7955 10.2405C18.8287 9.32728 18.6776 8.41675 18.351 7.56327C18.0245 6.70979 17.5293 5.93088 16.895 5.27308C16.2607 4.61527 15.5003 4.09206 14.6593 3.73469C13.8182 3.37733 12.9138 3.19314 12 3.19314C11.0862 3.19314 10.1817 3.37733 9.34071 3.73469C8.49967 4.09206 7.73929 4.61527 7.10499 5.27308C6.47069 5.93088 5.97548 6.70979 5.64895 7.56327C5.32241 8.41675 5.17125 9.32728 5.20449 10.2405C5.28949 12.4875 6.53149 15.0145 8.57049 17.5775C9.53895 18.7916 10.6034 19.9259 11.7535 20.9695C11.8642 21.0695 11.9465 21.1422 12.0005 21.1875L12.2475 20.9695ZM11.2625 22.1345C11.2625 22.1345 4.00049 16.0185 4.00049 10.0005C4.00049 7.87876 4.84334 5.84392 6.34363 4.34363C7.84392 2.84334 9.87876 2.00049 12.0005 2.00049C14.1222 2.00049 16.1571 2.84334 17.6573 4.34363C19.1576 5.84392 20.0005 7.87876 20.0005 10.0005C20.0005 16.0185 12.7385 22.1345 12.7385 22.1345C12.3345 22.5065 11.6695 22.5025 11.2625 22.1345ZM12.0005 12.8005C12.7431 12.8005 13.4553 12.5055 13.9804 11.9804C14.5055 11.4553 14.8005 10.7431 14.8005 10.0005C14.8005 9.25788 14.5055 8.54569 13.9804 8.02059C13.4553 7.49549 12.7431 7.20049 12.0005 7.20049C11.2579 7.20049 10.5457 7.49549 10.0206 8.02059C9.49549 8.54569 9.20049 9.25788 9.20049 10.0005C9.20049 10.7431 9.49549 11.4553 10.0206 11.9804C10.5457 12.5055 11.2579 12.8005 12.0005 12.8005ZM12.0005 14.0005C10.9396 14.0005 9.92221 13.5791 9.17206 12.8289C8.42192 12.0788 8.00049 11.0614 8.00049 10.0005C8.00049 8.93962 8.42192 7.92221 9.17206 7.17206C9.92221 6.42192 10.9396 6.00049 12.0005 6.00049C13.0614 6.00049 14.0788 6.42192 14.8289 7.17206C15.5791 7.92221 16.0005 8.93962 16.0005 10.0005C16.0005 11.0614 15.5791 12.0788 14.8289 12.8289C14.0788 13.5791 13.0614 14.0005 12.0005 14.0005Z" fill="#FF5C02"/>
</svg>
