<svg width="21" height="20" viewBox="0 0 21 20" fill="none" xmlns="http://www.w3.org/2000/svg">
<path d="M6.08333 13.3337C6.41485 13.3337 6.7328 13.202 6.96722 12.9675C7.20164 12.7331 7.33333 12.4152 7.33333 12.0837C7.33646 12.0421 7.33646 12.0003 7.33333 11.9587L9.65833 9.63366H10.0417L11.3833 10.9753V11.042C11.3833 11.3735 11.515 11.6915 11.7494 11.9259C11.9839 12.1603 12.3018 12.292 12.6333 12.292C12.9649 12.292 13.2828 12.1603 13.5172 11.9259C13.7516 11.6915 13.8833 11.3735 13.8833 11.042V10.9753L16.9167 7.91699C17.1639 7.91699 17.4056 7.84368 17.6111 7.70633C17.8167 7.56898 17.9769 7.37375 18.0715 7.14535C18.1661 6.91694 18.1909 6.66561 18.1426 6.42313C18.0944 6.18065 17.9754 5.95792 17.8005 5.78311C17.6257 5.60829 17.403 5.48924 17.1605 5.44101C16.9181 5.39278 16.6667 5.41753 16.4383 5.51214C16.2099 5.60675 16.0147 5.76697 15.8773 5.97253C15.74 6.17809 15.6667 6.41977 15.6667 6.66699C15.6635 6.7086 15.6635 6.75038 15.6667 6.79199L12.6583 9.80033H12.525L11.0833 8.33366C11.0833 8.00214 10.9516 7.6842 10.7172 7.44978C10.4828 7.21535 10.1649 7.08366 9.83333 7.08366C9.50181 7.08366 9.18387 7.21535 8.94945 7.44978C8.71503 7.6842 8.58333 8.00214 8.58333 8.33366L6.08333 10.8337C5.75181 10.8337 5.43387 10.9654 5.19945 11.1998C4.96503 11.4342 4.83333 11.7521 4.83333 12.0837C4.83333 12.4152 4.96503 12.7331 5.19945 12.9675C5.43387 13.202 5.75181 13.3337 6.08333 13.3337ZM17.3333 16.667H3.16667V2.50033C3.16667 2.27931 3.07887 2.06735 2.92259 1.91107C2.76631 1.75479 2.55435 1.66699 2.33333 1.66699C2.11232 1.66699 1.90036 1.75479 1.74408 1.91107C1.5878 2.06735 1.5 2.27931 1.5 2.50033V17.5003C1.5 17.7213 1.5878 17.9333 1.74408 18.0896C1.90036 18.2459 2.11232 18.3337 2.33333 18.3337H17.3333C17.5543 18.3337 17.7663 18.2459 17.9226 18.0896C18.0789 17.9333 18.1667 17.7213 18.1667 17.5003C18.1667 17.2793 18.0789 17.0673 17.9226 16.9111C17.7663 16.7548 17.5543 16.667 17.3333 16.667Z" fill="white"/>
</svg>
