<svg width="25" height="24" viewBox="0 0 25 24" fill="none" xmlns="http://www.w3.org/2000/svg">
<g clip-path="url(#clip0_2888_418)">
<path d="M6.79419 1.66398C6.74194 1.61154 6.67984 1.56993 6.61147 1.54154C6.54309 1.51315 6.46979 1.49854 6.39576 1.49854C6.32172 1.49854 6.24842 1.51315 6.18005 1.54154C6.11167 1.56993 6.04958 1.61154 5.99732 1.66398L3.01232 4.63163L1.94826 3.59476C1.896 3.54232 1.8339 3.50071 1.76553 3.47232C1.69716 3.44393 1.62385 3.42932 1.54982 3.42932C1.47579 3.42932 1.40248 3.44393 1.33411 3.47232C1.26574 3.50071 1.20364 3.54232 1.15138 3.59476L0.415444 4.33164C0.363004 4.38389 0.321395 4.44599 0.293005 4.51436C0.264614 4.58273 0.25 4.65604 0.25 4.73007C0.25 4.80411 0.264614 4.87741 0.293005 4.94578C0.321395 5.01416 0.363004 5.07625 0.415444 5.12851L2.64622 7.35038C2.75757 7.45623 2.90533 7.51525 3.05896 7.51525C3.21259 7.51525 3.36034 7.45623 3.47169 7.35038L4.20247 6.6182L7.58685 3.23429C7.6923 3.12876 7.75188 2.9859 7.75267 2.83672C7.75346 2.68754 7.69539 2.54406 7.59107 2.43742L6.79419 1.66398ZM6.79419 9.12601C6.74194 9.07357 6.67984 9.03196 6.61147 9.00357C6.54309 8.97518 6.46979 8.96057 6.39576 8.96057C6.32172 8.96057 6.24842 8.97518 6.18005 9.00357C6.11167 9.03196 6.04958 9.07357 5.99732 9.12601L3.01232 12.1129L1.94826 11.0769C1.896 11.0245 1.8339 10.9829 1.76553 10.9545C1.69716 10.9261 1.62385 10.9115 1.54982 10.9115C1.47579 10.9115 1.40248 10.9261 1.33411 10.9545C1.26574 10.9829 1.20364 11.0245 1.15138 11.0769L0.415444 11.8124C0.363004 11.8647 0.321395 11.9268 0.293005 11.9951C0.264614 12.0635 0.25 12.1368 0.25 12.2109C0.25 12.2849 0.264614 12.3582 0.293005 12.4266C0.321395 12.4949 0.363004 12.557 0.415444 12.6093L2.6406 14.8359C2.75187 14.9417 2.89955 15.0007 3.0531 15.0007C3.20665 15.0007 3.35433 14.9417 3.4656 14.8359L4.20154 14.1004L7.58591 10.7151C7.69096 10.6103 7.75034 10.4682 7.75113 10.3198C7.75192 10.1715 7.69405 10.0288 7.59013 9.92288L6.79419 9.12601ZM3.24997 17.2499C2.00826 17.2499 0.972319 18.2577 0.972319 19.4999C0.972319 20.7421 2.00919 21.7499 3.24997 21.7499C3.84671 21.7499 4.41901 21.5129 4.84096 21.0909C5.26292 20.6689 5.49997 20.0967 5.49997 19.4999C5.49997 18.9032 5.26292 18.3309 4.84096 17.9089C4.41901 17.487 3.84671 17.2499 3.24997 17.2499ZM23.5 17.9999H9.99997C9.80106 17.9999 9.6103 18.0789 9.46964 18.2196C9.32899 18.3602 9.24997 18.551 9.24997 18.7499V20.2499C9.24997 20.4488 9.32899 20.6396 9.46964 20.7802C9.6103 20.9209 9.80106 20.9999 9.99997 20.9999H23.5C23.6989 20.9999 23.8897 20.9209 24.0303 20.7802C24.171 20.6396 24.25 20.4488 24.25 20.2499V18.7499C24.25 18.551 24.171 18.3602 24.0303 18.2196C23.8897 18.0789 23.6989 17.9999 23.5 17.9999ZM23.5 2.99992H9.99997C9.80106 2.99992 9.6103 3.07893 9.46964 3.21959C9.32899 3.36024 9.24997 3.551 9.24997 3.74992V5.24992C9.24997 5.44883 9.32899 5.63959 9.46964 5.78025C9.6103 5.9209 9.80106 5.99992 9.99997 5.99992H23.5C23.6989 5.99992 23.8897 5.9209 24.0303 5.78025C24.171 5.63959 24.25 5.44883 24.25 5.24992V3.74992C24.25 3.551 24.171 3.36024 24.0303 3.21959C23.8897 3.07893 23.6989 2.99992 23.5 2.99992ZM23.5 10.4999H9.99997C9.80106 10.4999 9.6103 10.5789 9.46964 10.7196C9.32899 10.8602 9.24997 11.051 9.24997 11.2499V12.7499C9.24997 12.9488 9.32899 13.1396 9.46964 13.2802C9.6103 13.4209 9.80106 13.4999 9.99997 13.4999H23.5C23.6989 13.4999 23.8897 13.4209 24.0303 13.2802C24.171 13.1396 24.25 12.9488 24.25 12.7499V11.2499C24.25 11.051 24.171 10.8602 24.0303 10.7196C23.8897 10.5789 23.6989 10.4999 23.5 10.4999Z" fill="#FF5C02"/>
</g>
<defs>
<clipPath id="clip0_2888_418">
<rect width="24" height="24" fill="white" transform="translate(0.25)"/>
</clipPath>
</defs>
</svg>
