<svg width="21" height="20" viewBox="0 0 21 20" fill="none" xmlns="http://www.w3.org/2000/svg">
<path d="M6.08325 18.3332C5.62492 18.3332 5.2327 18.1701 4.90658 17.844C4.58047 17.5179 4.41714 17.1254 4.41659 16.6665C4.41603 16.2076 4.57936 15.8154 4.90658 15.4898C5.23381 15.1643 5.62603 15.0009 6.08325 14.9998C6.54047 14.9987 6.93297 15.1621 7.26075 15.4898C7.58853 15.8176 7.75159 16.2098 7.74992 16.6665C7.74825 17.1232 7.5852 17.5157 7.26075 17.844C6.93631 18.1723 6.54381 18.3354 6.08325 18.3332ZM14.4166 18.3332C13.9583 18.3332 13.566 18.1701 13.2399 17.844C12.9138 17.5179 12.7505 17.1254 12.7499 16.6665C12.7494 16.2076 12.9127 15.8154 13.2399 15.4898C13.5671 15.1643 13.9594 15.0009 14.4166 14.9998C14.8738 14.9987 15.2663 15.1621 15.5941 15.4898C15.9219 15.8176 16.0849 16.2098 16.0833 16.6665C16.0816 17.1232 15.9185 17.5157 15.5941 17.844C15.2696 18.1723 14.8771 18.3354 14.4166 18.3332ZM4.58325 3.33317H16.8749C17.1944 3.33317 17.4374 3.47567 17.6041 3.76067C17.7708 4.04567 17.7777 4.33373 17.6249 4.62484L14.6666 9.95817C14.5138 10.2359 14.3091 10.4512 14.0524 10.604C13.7958 10.7568 13.5144 10.8332 13.2083 10.8332H6.99992L6.08325 12.4998H16.0833V14.1665H6.08325C5.45825 14.1665 4.98603 13.8923 4.66659 13.344C4.34714 12.7957 4.33325 12.2504 4.62492 11.7082L5.74992 9.6665L2.74992 3.33317H1.08325V1.6665H3.79159L4.58325 3.33317Z" fill="white"/>
</svg>
