<svg width="25" height="24" viewBox="0 0 25 24" fill="none" xmlns="http://www.w3.org/2000/svg">
<path fill-rule="evenodd" clip-rule="evenodd" d="M5.25 3.75C5.25 3.55109 5.32902 3.36032 5.46967 3.21967C5.61032 3.07902 5.80109 3 6 3H19.5C19.6989 3 19.8897 3.07902 20.0303 3.21967C20.171 3.36032 20.25 3.55109 20.25 3.75V8.25H21C21.1989 8.25 21.3897 8.32902 21.5303 8.46967C21.671 8.61032 21.75 8.80109 21.75 9V18.75C21.75 18.9489 21.671 19.1397 21.5303 19.2803C21.3897 19.421 21.1989 19.5 21 19.5H4.5C4.30109 19.5 4.11032 19.421 3.96967 19.2803C3.82902 19.1397 3.75 18.9489 3.75 18.75V6.75C3.75 6.55109 3.82902 6.36032 3.96967 6.21967C4.11032 6.07902 4.30109 6 4.5 6H5.25V3.75ZM5.25 7.5V11.25H20.25V9.75H12C11.9014 9.75018 11.8038 9.73093 11.7127 9.69335C11.6216 9.65577 11.5388 9.6006 11.469 9.531L9.4395 7.5H5.25ZM18.75 8.25V4.5H6.75V6H9.75C9.84856 5.99982 9.94618 6.01907 10.0373 6.05665C10.1284 6.09423 10.2112 6.1494 10.281 6.219L12.3105 8.25H18.75Z" fill="#FF5C02"/>
</svg>
