<svg width="18" height="19" viewBox="0 0 18 19" fill="none" xmlns="http://www.w3.org/2000/svg">
<path d="M8.16699 0.666016C7.06192 0.666016 6.00212 1.105 5.22071 1.8864C4.43931 2.66781 4.00033 3.72761 4.00033 4.83268C4.00033 5.93775 4.43931 6.99756 5.22071 7.77896C6.00212 8.56036 7.06192 8.99935 8.16699 8.99935C9.27206 8.99935 10.3319 8.56036 11.1133 7.77896C11.8947 6.99756 12.3337 5.93775 12.3337 4.83268C12.3337 3.72761 11.8947 2.66781 11.1133 1.8864C10.3319 1.105 9.27206 0.666016 8.16699 0.666016ZM8.16699 9.83268C8.65977 9.83379 9.13866 9.86713 9.60366 9.93268C9.76003 9.95453 9.90698 10.0204 10.0274 10.1225C10.1478 10.2246 10.2367 10.3589 10.2838 10.5096C10.3308 10.6603 10.3341 10.8213 10.2932 10.9738C10.2523 11.1263 10.169 11.2641 10.0528 11.371C9.36698 11.9993 8.84181 12.7829 8.52136 13.6561C8.20091 14.5293 8.09454 15.4666 8.21116 16.3893C8.22588 16.5079 8.21493 16.6283 8.17905 16.7422C8.14318 16.8562 8.08321 16.9611 8.00323 17.0499C7.92324 17.1386 7.82511 17.2092 7.71548 17.2567C7.60585 17.3042 7.48728 17.3275 7.36783 17.3252C5.69283 17.2918 4.12616 17.1452 2.95616 16.7868C2.37116 16.6077 1.81949 16.356 1.40116 15.9852C0.958659 15.5935 0.666992 15.066 0.666992 14.416C0.666992 13.7602 0.965326 13.1468 1.37033 12.6335C1.78199 12.1127 2.35116 11.6335 3.01866 11.2252C4.35449 10.4118 6.17116 9.83268 8.16699 9.83268ZM16.677 10.6943C17.0676 11.085 17.287 11.6148 17.287 12.1673C17.287 12.7197 17.0676 13.2495 16.677 13.6402L13.8287 16.4885C13.6375 16.6796 13.3896 16.8036 13.122 16.8418L11.1978 17.1168C11.0696 17.1353 10.9388 17.1236 10.8159 17.0826C10.693 17.0417 10.5813 16.9726 10.4897 16.881C10.3982 16.7893 10.3292 16.6776 10.2884 16.5546C10.2475 16.4317 10.2359 16.3009 10.2545 16.1727L10.5295 14.2493C10.5676 13.9815 10.6916 13.7332 10.8828 13.5418L13.7312 10.6935C14.1218 10.303 14.6517 10.0835 15.2041 10.0835C15.7565 10.0835 16.2863 10.303 16.677 10.6935V10.6943Z" fill="#FF5C02"/>
</svg>
