<svg xmlns="http://www.w3.org/2000/svg" viewBox="0 0 512 512">
  <path d="M243 510.60 c-1.50 -0.75 -4.25 -2.80 -6.15 -4.55 -5.40 -5.10 -7.85 -11.30 -7.85 -19.80 0 -4.35 1.50 -10.60 3.35 -13.70 2.10 -3.60 7 -8.15 10.50 -9.85 l3.10 -1.45 0 -25.10 0.05 -25.15 -15.50 0 -15.50 0 0 26 c0 22.35 -0.10 26.30 -0.75 27.90 -0.95 2.20 -2.50 3.90 -4.50 5 -2.05 1.10 -8 1.05 -10.10 -0.05 -1.75 -0.95 -3.80 -3.40 -4.45 -5.35 -0.25 -0.70 -0.40 -12.95 -0.45 -27.25 l0 -26 -15.60 -0.15 -15.65 -0.10 0 30.95 c0 29.05 -0.05 31.15 -0.95 34 -1.50 4.85 -4.25 8.05 -9.05 10.40 -2.70 1.40 -2.85 1.40 -14.10 1.55 l-11.40 0.20 -1.80 3.45 c-4.35 8.25 -13.40 13.45 -23.45 13.45 -13.05 0 -23.45 -7.75 -26.50 -19.75 -0.95 -3.80 -0.95 -10.70 0 -14.50 2.60 -10.05 10.70 -17.55 20.80 -19.25 7.55 -1.30 15.75 0.25 21.15 3.95 3.10 2.15 7 6.60 8.55 9.80 l1.35 2.75 7.70 0 7.70 0 0 -28.50 0 -28.50 -6.15 0 c-9.75 0 -16.90 -2.25 -23.15 -7.30 -4.20 -3.35 -7.45 -7.30 -9.50 -11.45 -2.55 -5.20 -3.20 -8.20 -3.55 -16.40 l-0.30 -7.35 -28.30 0.10 -28.30 0.15 -0.15 7.60 -0.15 7.60 3.50 1.80 c9 4.75 13.55 12.60 13.55 23.35 0 8.70 -2.15 14.45 -7.30 19.75 -5.45 5.60 -12.75 8.10 -21.95 7.50 -7.65 -0.50 -12.75 -2.85 -17.70 -8.10 -4.90 -5.25 -7.05 -11 -7.05 -18.65 0 -4.85 1.10 -9.45 3.10 -13.20 1.90 -3.60 7.75 -9.20 11.25 -10.85 l2.55 -1.20 0.20 -11.30 0.15 -11.35 1.65 -3.30 c1.95 -4 5.05 -6.90 9.05 -8.50 2.80 -1.15 2.80 -1.15 34.45 -1.30 l31.60 -0.15 -0.10 -15.60 -0.15 -15.60 -24 0.15 c-26.10 0.20 -29.25 0 -32.05 -2.15 -2.60 -2 -3.45 -3.95 -3.40 -8.10 0 -3.20 0.15 -3.85 1.45 -5.70 2.95 -4.10 1.55 -3.95 31.60 -3.95 l26.65 0 0 -15.75 0 -15.75 -24.95 0 -24.90 0 -1.55 3.15 c-5.15 10.45 -17.80 15.85 -30.75 13.10 -7.15 -1.50 -14.40 -6.95 -17.50 -13.30 -1.35 -2.60 -1.35 -2.80 -1.35 -12.70 l0 -10.10 1.60 -3.15 c2.95 -5.90 9.50 -11.10 16.40 -13 2.80 -0.80 11.95 -0.80 15.20 -0.05 6.40 1.50 13.70 7.30 16.50 13.20 l1.40 2.85 24.95 0 24.95 0 0 -15.50 0 -15.45 -26.65 -0.15 -26.65 -0.15 -2.15 -1.40 c-3.20 -2.15 -4.05 -3.90 -4.05 -8.50 0 -4.55 0.65 -6.15 3.35 -8.20 l1.80 -1.40 27.20 -0.15 27.15 -0.10 0 -15.75 0 -15.70 -32.10 -0.15 -32.15 -0.15 -2.60 -1.20 c-3.15 -1.40 -7.25 -5.60 -8.80 -8.90 -1 -2.20 -1.10 -3.30 -1.25 -13.90 l-0.20 -11.50 -3.05 -1.50 c-3.85 -1.85 -9.10 -7 -11 -10.75 -0.75 -1.55 -1.70 -4.35 -2.10 -6.25 -3.75 -17.70 7.15 -32.60 24.50 -33.60 13.75 -0.80 24.75 6.75 28 19.10 0.95 3.70 1 12.10 0.05 15.55 -1.75 6.65 -6.55 12.65 -12.70 15.85 l-3.60 1.90 0 7.75 0 7.70 28.45 0 28.40 0 0.30 -7.10 c0.45 -11.35 2.70 -17.55 8.85 -24.10 7.40 -7.85 14.05 -10.65 26.40 -11.15 l7.10 -0.30 0 -28.40 0 -28.45 -7.75 0 -7.70 0 -0.95 2.10 c-1.30 2.95 -4.70 7.30 -7.25 9.35 -4.95 4 -11.25 5.80 -18.85 5.40 -15.50 -0.75 -25.50 -11.15 -25.50 -26.50 0 -5.45 0.70 -8.75 2.75 -12.85 5.25 -10.45 16.25 -15.75 29 -14.05 8.25 1.10 16.30 6.85 19.30 13.75 l1.20 2.70 11.25 0.20 c9.20 0.20 11.70 0.40 13.65 1.10 3.30 1.25 7.50 5.20 9.20 8.70 l1.40 2.85 0.15 32.15 0.15 32.10 15.45 0 15.50 0 0 -24.10 c0 -13.30 0.25 -25.55 0.50 -27.30 0.80 -5.80 3.60 -8.10 9.75 -8.10 4.70 0 6.85 0.90 8.65 3.65 l1.35 2.05 0.15 26.90 0.15 26.90 15.45 0 15.50 0 0 -25.10 0 -25.15 -2.90 -1.20 c-3.70 -1.60 -9.40 -7.20 -11.25 -11.05 -3.90 -8.10 -3.80 -18.15 0.20 -26.10 2.05 -4 6.85 -8.80 10.85 -10.85 l3.05 -1.55 10.20 0 10.20 0 3 1.50 c3.75 1.90 9.20 7.45 10.90 11.10 3.80 8.40 3.70 18.95 -0.35 26.55 -2.15 4 -6.50 8.25 -10.60 10.30 l-3.30 1.70 0 24.90 0 24.95 15.50 0 15.50 0 0 -25.60 c0 -16.10 0.20 -26.35 0.50 -27.50 0.65 -2.20 2.60 -4.65 4.55 -5.65 2 -1.05 8.55 -1 10.80 0.10 0.95 0.45 2.35 1.70 3.05 2.80 l1.35 2.05 0.15 26.90 0.15 26.90 15.45 0 15.50 0 0 -30.60 c0 -33.05 0.05 -33.60 2.70 -38.10 1.65 -2.80 4.30 -5.10 7.80 -6.75 2.65 -1.25 3.10 -1.30 14 -1.45 l11.25 -0.20 0.90 -2.05 c1.30 -3.20 5.45 -8 8.80 -10.25 4.85 -3.20 8.75 -4.30 15.55 -4.30 9.10 0 14.60 2.15 20 7.75 4.75 5.05 7 11.10 7 19.15 0 15.85 -10.85 26.75 -26.80 26.80 -10.90 0 -19.70 -5.05 -24.15 -13.90 l-1.55 -3.10 -7.75 0 -7.75 0 0 28.45 0 28.40 7.15 0.30 c8.15 0.30 12.50 1.35 18.10 4.25 4.65 2.45 10.35 8.15 12.85 12.85 3.15 6.10 4 9.60 4.30 17.90 l0.20 7.35 28.45 0 28.45 0 -0.05 -7.85 0 -7.90 -3 -1.45 c-6.05 -2.85 -11.15 -9 -13.15 -15.75 -1.30 -4.40 -1.10 -12.95 0.40 -17.20 3.90 -11 13.75 -17.85 25.80 -17.85 16.60 0 28 12.50 26.85 29.50 -0.50 7.35 -3.05 12.80 -8.20 17.50 -1.50 1.35 -4.05 3.10 -5.65 3.90 l-2.95 1.35 -0.15 11.50 c-0.15 11.20 -0.20 11.60 -1.45 14.25 -1.65 3.50 -4.95 6.80 -8.45 8.45 l-2.75 1.30 -32.10 0.15 -32.15 0.15 0 15.70 0 15.75 26.80 0 c29.90 0 29.15 -0.10 31.45 3.45 2.40 3.70 2.20 9.90 -0.40 12.85 -3.10 3.60 -1.65 3.45 -31.20 3.60 l-26.65 0.15 0 15.50 0 15.45 24.95 0 25 0 1.55 -2.90 c2.10 -3.95 4.15 -6.35 7.60 -8.90 5.50 -4 13 -5.70 21.05 -4.70 8.15 1 15.90 6.40 19.50 13.55 1.35 2.70 1.35 2.80 1.35 13 l0 10.30 -1.50 3.05 c-2 3.90 -7.30 9 -11.60 11 -7.40 3.55 -17.60 3.45 -25.25 -0.25 -3.90 -1.85 -9.55 -7.50 -11.35 -11.30 l-1.35 -2.85 -24.85 0.10 -24.85 0.15 -0.15 15.65 -0.10 15.60 26.80 0 c26.75 0 26.80 0 28.80 1.10 3.45 1.95 4.80 5.50 4.15 10.70 -0.25 2.05 -0.70 3.20 -1.85 4.50 -3.20 3.60 -1.65 3.45 -31.15 3.45 l-26.50 0 -0.15 15.65 -0.10 15.60 30.15 0 c18.35 0 31.25 0.20 32.90 0.50 5.60 1.05 9.80 4.25 12.30 9.40 1.40 2.85 1.40 2.95 1.55 14.35 l0.20 11.50 2.80 1.25 c3.20 1.40 8.60 6.20 10.40 9.25 3.05 5.20 4.45 14 3.30 20.25 -1.85 9.75 -7.95 17 -16.90 20.05 -4.50 1.55 -13.80 1.65 -18.45 0.25 -8.50 -2.55 -14.90 -9.05 -17.45 -17.75 -0.90 -3.15 -1.05 -11.55 -0.25 -15.05 1.50 -6.65 7.35 -13.95 13.35 -16.80 l3.05 -1.45 0 -7.85 0.05 -7.90 -28.50 0 -28.50 0 0 5.75 c0 7.70 -1 12.40 -3.85 18.20 -3.85 7.95 -10.65 13.85 -19.40 16.85 -3.50 1.20 -5 1.40 -11.60 1.60 l-7.65 0.20 0 28.45 0 28.45 7.90 -0.05 7.85 0 1.40 -2.95 c2.65 -5.60 7.75 -10.10 14.10 -12.50 4.15 -1.55 12.15 -1.90 16.95 -0.80 9.50 2.25 16.60 9.20 19.05 18.60 0.95 3.70 0.95 11.65 0 15.35 -3.55 13.65 -16.60 21.40 -31.65 18.85 -7.60 -1.25 -14.95 -6.55 -18.50 -13.35 l-1.65 -3.15 -10.15 0 c-13.45 0 -16.50 -0.90 -21.20 -6.25 -4 -4.50 -3.80 -3 -4 -38.85 l-0.15 -31.90 -15.45 0 -15.50 0 0 25.65 c0 16.05 -0.20 26.30 -0.50 27.45 -0.65 2.20 -2.60 4.65 -4.55 5.65 -1.85 1 -8.50 1 -10.35 0.05 -1.85 -0.95 -3.40 -2.75 -4.35 -4.90 -0.65 -1.60 -0.75 -5.55 -0.75 -27.90 l0 -26 -15.50 0 -15.50 0 0 25.05 0 25 1.85 0.80 c4.55 1.90 9.70 6.65 12.15 11.20 4 7.55 4 19 -0.05 27 -2 4 -6.25 8.20 -10.40 10.35 l-3.20 1.60 -10.30 0 c-10.20 -0.05 -10.35 -0.05 -13.05 -1.40z m16.15 -18.35 c1 -0.70 2.30 -2.20 2.90 -3.35 0.90 -1.80 1 -2.35 0.50 -3.95 -0.65 -2.15 -3.45 -4.75 -5.65 -5.20 -2.25 -0.50 -5.40 1.50 -6.80 4.35 l-1.20 2.35 1 2.20 c0.90 2 2.70 3.80 4.60 4.50 1.55 0.55 2.80 0.30 4.65 -0.90z m-152.90 -9 c2.05 -1.55 3.45 -4.40 3 -6.15 -0.85 -3.45 -4.90 -6.45 -7.80 -5.85 -2 0.45 -5.25 3.70 -5.70 5.65 -0.55 2.60 2.05 6.45 5.25 7.75 1.25 0.50 3.60 -0.10 5.25 -1.40z m306 0.60 c2.45 -1.40 4.40 -4.50 4 -6.55 -0.65 -3.50 -4.55 -6.65 -7.60 -6.05 -2 0.35 -5.35 3.50 -5.85 5.50 -0.55 2.10 1.35 5.50 3.85 7 2.55 1.50 3.10 1.55 5.60 0.10z m-375.80 -68.10 c1.90 -0.95 3.90 -3.40 4.30 -5.20 0.70 -3.20 -3.20 -7.75 -6.60 -7.75 -2.95 0 -6.65 3.85 -6.65 6.95 0 2.05 1.75 4.65 4 5.80 2.10 1.15 3.10 1.20 4.95 0.20z m445.05 -0.75 c0.80 -0.55 1.90 -2 2.50 -3.25 l1.10 -2.25 -1.05 -2.15 c-1.30 -2.65 -4.70 -5.05 -6.55 -4.60 -2.35 0.60 -4.45 2.30 -5.55 4.55 -1.05 2.20 -1.05 2.30 -0.20 4.20 2.05 4.60 6.15 6.05 9.75 3.50z m-100.60 -25.20 c3.95 -1.85 7.60 -5.70 9.05 -9.60 l1.05 -2.75 -0.10 -122.10 -0.15 -122.10 -1.40 -2.85 c-1.75 -3.55 -5.50 -7 -9.15 -8.40 l-2.75 -1 -122.10 0.10 -122.10 0.15 -2.65 1.40 c-3.50 1.85 -6.40 4.85 -8 8.25 l-1.35 2.85 0 122.25 0 122.25 1.65 3.35 c1.65 3.35 4.30 6.15 7.35 7.80 3.90 2.05 1.25 2 127 1.95 l120.50 -0.10 3.15 -1.45z m-351.95 -128.20 c4.80 -3.55 4.15 -9.35 -1.40 -11.80 -2.05 -0.95 -2.05 -0.95 -4.40 0.25 -1.75 0.95 -2.65 1.85 -3.55 3.60 l-1.20 2.30 1.15 2.40 c2.10 4.20 6.20 5.60 9.40 3.25z m461.25 -0.30 c0.90 -0.65 2 -2.10 2.50 -3.25 0.95 -2.05 0.95 -2.05 -0.25 -4.40 -0.95 -1.80 -1.80 -2.65 -3.60 -3.60 -2.35 -1.20 -2.35 -1.20 -4.40 -0.25 -4.35 1.95 -5.90 6.25 -3.50 9.65 2.65 3.70 6 4.35 9.25 1.85z m-453.70 -152.80 c2.60 -1.30 4.70 -4.85 4.25 -7 -0.60 -2.70 -4.15 -6 -6.50 -6 -2.85 0 -6.75 3.85 -6.75 6.65 0 2.60 2.30 5.70 5 6.80 1.75 0.70 1.80 0.65 4 -0.45z m444.30 -0.25 c1.45 -0.85 2.45 -1.95 3.20 -3.50 l1.10 -2.30 -1.15 -2.30 c-0.85 -1.60 -1.85 -2.65 -3.50 -3.60 l-2.30 -1.25 -2.15 0.95 c-5.95 2.65 -6.25 9.25 -0.60 12.25 2.40 1.25 2.85 1.25 5.40 -0.25z m-376.15 -67.95 c2.05 -0.85 4.15 -3.30 4.60 -5.30 0.50 -2.25 -1.45 -5.35 -4.35 -6.95 l-2.40 -1.30 -2.35 1.30 c-2.75 1.45 -4.90 4.85 -4.40 6.90 0.70 2.70 4.20 6.05 6.40 6.05 0.50 0 1.60 -0.30 2.50 -0.70z m306.70 0.15 c2 -0.75 4.05 -2.85 4.70 -4.80 0.85 -2.60 -1.05 -5.95 -4.25 -7.60 l-2.35 -1.20 -2.20 1.05 c-1.50 0.75 -2.60 1.75 -3.55 3.35 -1.20 2.10 -1.30 2.50 -0.80 4.20 0.65 2.05 2 3.55 4.35 4.75 1.80 0.95 2.25 0.95 4.10 0.25z m-152.60 -9.10 c1.35 -0.75 2.40 -1.90 3.25 -3.50 l1.25 -2.40 -1.30 -2.35 c-1.75 -3.20 -4.75 -4.90 -7.10 -4.15 -3.15 1.05 -6.25 5.40 -5.55 7.75 0.80 2.65 4.40 5.75 6.70 5.80 0.40 0 1.65 -0.50 2.75 -1.15z"/>
  <path d="M271.25 334.25 c-0.25 -0.10 -1.10 -0.30 -1.90 -0.45 -0.75 -0.20 -2.25 -1.10 -3.35 -2.10 -1.50 -1.40 -2.10 -2.35 -2.55 -4.55 -0.85 -3.65 -0.05 -7.75 1.90 -9.80 2.65 -2.80 3.60 -3 13.80 -3.25 l9.35 -0.25 0 -57.90 0 -57.85 -9.35 -0.20 c-8.90 -0.15 -9.50 -0.20 -11.55 -1.40 -2.60 -1.45 -4 -3.60 -4.40 -6.65 -0.50 -3.65 0.15 -6.65 1.95 -8.70 2.85 -3.25 1.85 -3.15 34 -3.15 l29.20 0 1.70 1.15 c3.05 2.05 3.95 4 3.95 8.45 0 4.40 -0.60 6.05 -3 8.05 -2.30 1.95 -4.50 2.35 -13.60 2.35 l-8.40 0 0 58 0 58 8 0 c11.05 0 13.05 0.50 15.90 4.20 0.95 1.25 1.10 2.05 1.10 5.80 0 3.70 -0.15 4.60 -1.10 6 -1.65 2.40 -3.50 3.60 -6.25 4.05 -2.25 0.35 -54.30 0.55 -55.40 0.20z"/>
  <path d="M165 332.95 c-2.70 -1.55 -4.05 -3.90 -4.35 -7.55 -0.20 -2.65 0.25 -5.35 2.80 -16.40 1.65 -7.30 3.70 -16.40 4.55 -20.25 0.85 -3.85 3.80 -17 6.55 -29.25 2.75 -12.25 6.90 -30.70 9.20 -41 6.80 -30.30 7.15 -31.90 8.25 -34 1.10 -2.15 4.40 -4.80 7.15 -5.85 2 -0.70 9 -0.80 11.35 -0.15 3.80 1.05 7.05 4.50 8.25 8.75 0.80 2.65 7.30 31.30 16.25 71.50 3 13.50 7.40 33.05 9.75 43.50 3.75 16.50 4.30 19.50 4.15 22.80 -0.15 3.20 -0.35 4.05 -1.50 5.55 -1.90 2.50 -4.10 3.40 -8.35 3.40 -4.40 0 -6.95 -1.15 -8.60 -3.85 -0.85 -1.35 -2.55 -8.10 -6.20 -24.40 l-5 -22.50 -14.35 -0.15 -14.40 -0.10 -0.25 1.10 c-0.15 0.65 -2.40 10.75 -5 22.50 -2.60 11.80 -5.05 22 -5.45 22.75 -1.75 3.45 -4.20 4.65 -9.15 4.65 -3 0 -4.30 -0.25 -5.65 -1.05z m50 -69.70 c0 -0.15 -1 -4.60 -2.25 -9.90 -1.25 -5.25 -3.55 -15.10 -5.05 -21.80 -1.50 -6.75 -2.80 -12.35 -2.90 -12.40 -0.10 -0.10 -0.35 0.65 -0.50 1.70 -0.50 2.60 -5.95 27.40 -7.80 35.40 -0.80 3.60 -1.50 6.65 -1.50 6.90 0 0.20 4.50 0.35 10 0.35 5.50 0 10 -0.10 10 -0.25z"/>
</svg>