<svg width="26" height="20" viewBox="0 0 26 20" fill="none" xmlns="http://www.w3.org/2000/svg">
<g clip-path="url(#clip0_1881_1070)">
<path d="M8.25 10C10.668 10 12.625 8.04297 12.625 5.625C12.625 3.20703 10.668 1.25 8.25 1.25C5.83203 1.25 3.875 3.20703 3.875 5.625C3.875 8.04297 5.83203 10 8.25 10ZM11.25 11.25H10.9258C10.1133 11.6406 9.21094 11.875 8.25 11.875C7.28906 11.875 6.39062 11.6406 5.57422 11.25H5.25C2.76562 11.25 0.75 13.2656 0.75 15.75V16.875C0.75 17.9102 1.58984 18.75 2.625 18.75H13.875C14.9102 18.75 15.75 17.9102 15.75 16.875V15.75C15.75 13.2656 13.7344 11.25 11.25 11.25ZM19.5 10C21.5703 10 23.25 8.32031 23.25 6.25C23.25 4.17969 21.5703 2.5 19.5 2.5C17.4297 2.5 15.75 4.17969 15.75 6.25C15.75 8.32031 17.4297 10 19.5 10ZM21.375 11.25H21.2266C20.6836 11.4375 20.1094 11.5625 19.5 11.5625C18.8906 11.5625 18.3164 11.4375 17.7734 11.25H17.625C16.8281 11.25 16.0938 11.4805 15.4492 11.8516C16.4023 12.8789 17 14.2422 17 15.75V17.25C17 17.3359 16.9805 17.418 16.9766 17.5H23.875C24.9102 17.5 25.75 16.6602 25.75 15.625C25.75 13.207 23.793 11.25 21.375 11.25Z" fill="white"/>
</g>
<defs>
<clipPath id="clip0_1881_1070">
<rect width="25" height="20" fill="white" transform="translate(0.75)"/>
</clipPath>
</defs>
</svg>
