<svg width="21" height="20" viewBox="0 0 21 20" fill="none" xmlns="http://www.w3.org/2000/svg">
<path d="M19.0832 18.3333H2.4165M2.4165 9.16667L5.80234 6.45833M19.0832 9.16667L12.3115 3.75C11.8682 3.39541 11.3175 3.20223 10.7498 3.20223C10.1822 3.20223 9.63144 3.39541 9.18817 3.75L8.5365 4.27083M13.6665 4.58333V2.91667C13.6665 2.80616 13.7104 2.70018 13.7885 2.62204C13.8667 2.5439 13.9727 2.5 14.0832 2.5H16.1665C16.277 2.5 16.383 2.5439 16.4611 2.62204C16.5393 2.70018 16.5832 2.80616 16.5832 2.91667V7.08333M4.08317 18.3333V7.91667M17.4165 7.91667V11.25M17.4165 18.3333V14.5833" stroke="white" stroke-width="1.25" stroke-linecap="round"/>
<path d="M13.2498 18.3337V14.167C13.2498 12.9887 13.2498 12.3995 12.8831 12.0337C12.5181 11.667 11.9289 11.667 10.7498 11.667C9.57059 11.667 8.98226 11.667 8.61642 12.0337M8.24976 18.3337V14.167" stroke="white" stroke-width="1.25" stroke-linecap="round" stroke-linejoin="round"/>
<path d="M12.4163 7.91667C12.4163 8.35869 12.2407 8.78262 11.9282 9.09518C11.6156 9.40774 11.1917 9.58333 10.7497 9.58333C10.3076 9.58333 9.88372 9.40774 9.57116 9.09518C9.2586 8.78262 9.08301 8.35869 9.08301 7.91667C9.08301 7.47464 9.2586 7.05072 9.57116 6.73816C9.88372 6.4256 10.3076 6.25 10.7497 6.25C11.1917 6.25 11.6156 6.4256 11.9282 6.73816C12.2407 7.05072 12.4163 7.47464 12.4163 7.91667Z" stroke="white" stroke-width="1.25"/>
</svg>
