<svg width="25" height="24" viewBox="0 0 25 24" fill="none" xmlns="http://www.w3.org/2000/svg">
<path fill-rule="evenodd" clip-rule="evenodd" d="M3.1865 7.823C2.6665 8.77 2.6665 9.915 2.6665 12.203V13.725C2.6665 17.625 2.6665 19.576 3.8385 20.788C5.0105 22 6.8955 22 10.6665 22H14.6665C18.4375 22 20.3235 22 21.4945 20.788C22.6655 19.576 22.6665 17.626 22.6665 13.725V12.204C22.6665 9.915 22.6665 8.771 22.1465 7.823C21.6285 6.874 20.6795 6.286 18.7825 5.108L16.7825 3.867C14.7775 2.622 13.7745 2 12.6665 2C11.5585 2 10.5565 2.622 8.5505 3.867L6.5505 5.108C4.6535 6.286 3.7055 6.874 3.1865 7.823ZM11.9165 18C11.9165 18.1989 11.9955 18.3897 12.1362 18.5303C12.2768 18.671 12.4676 18.75 12.6665 18.75C12.8654 18.75 13.0562 18.671 13.1968 18.5303C13.3375 18.3897 13.4165 18.1989 13.4165 18V15C13.4165 14.8011 13.3375 14.6103 13.1968 14.4697C13.0562 14.329 12.8654 14.25 12.6665 14.25C12.4676 14.25 12.2768 14.329 12.1362 14.4697C11.9955 14.6103 11.9165 14.8011 11.9165 15V18Z" fill="#FF5C02"/>
</svg>
