<svg width="25" height="24" viewBox="0 0 25 24" fill="none" xmlns="http://www.w3.org/2000/svg">
<path d="M11.9165 18C11.9165 18.1989 11.9955 18.3897 12.1362 18.5303C12.2768 18.671 12.4676 18.75 12.6665 18.75C12.8654 18.75 13.0562 18.671 13.1968 18.5303C13.3375 18.3897 13.4165 18.1989 13.4165 18V15C13.4165 14.8011 13.3375 14.6103 13.1968 14.4697C13.0562 14.329 12.8654 14.25 12.6665 14.25C12.4676 14.25 12.2768 14.329 12.1362 14.4697C11.9955 14.6103 11.9165 14.8011 11.9165 15V18Z" fill="#1A365D" fill-opacity="0.5"/>
<path fill-rule="evenodd" clip-rule="evenodd" d="M12.6665 1.25C11.9585 1.25 11.3155 1.453 10.6165 1.792C9.9425 2.12 9.1625 2.604 8.1895 3.208L6.1225 4.491C5.2025 5.063 4.4635 5.521 3.8955 5.956C3.3065 6.406 2.8545 6.866 2.5275 7.463C2.2015 8.058 2.0555 8.692 1.9845 9.441C1.9165 10.166 1.9165 11.054 1.9165 12.167V13.78C1.9165 15.684 1.9165 17.187 2.0695 18.362C2.2255 19.567 2.5555 20.54 3.2995 21.309C4.0465 22.082 4.9965 22.428 6.1745 22.591C7.3145 22.75 8.7725 22.75 10.6085 22.75H14.7245C16.5605 22.75 18.0185 22.75 19.1585 22.591C20.3355 22.428 21.2865 22.082 22.0345 21.309C22.7775 20.54 23.1075 19.567 23.2645 18.362C23.4165 17.187 23.4165 15.684 23.4165 13.78V12.167C23.4165 11.054 23.4165 10.167 23.3485 9.441C23.2785 8.691 23.1315 8.058 22.8055 7.463C22.4785 6.866 22.0255 6.407 21.4375 5.956C20.8695 5.52 20.1315 5.063 19.2105 4.491L17.1435 3.208C16.1705 2.604 15.3905 2.12 14.7155 1.792C14.0185 1.452 13.3755 1.25 12.6665 1.25ZM8.9465 4.504C9.9615 3.874 10.6765 3.432 11.2735 3.141C11.8545 2.858 12.2665 2.75 12.6665 2.75C13.0665 2.75 13.4785 2.858 14.0595 3.141C14.6575 3.431 15.3715 3.874 16.3865 4.504L18.3865 5.745C19.3475 6.342 20.0225 6.761 20.5265 7.147C21.0155 7.522 21.2965 7.831 21.4895 8.183C21.6825 8.536 21.7955 8.949 21.8545 9.581C21.9155 10.229 21.9165 11.046 21.9165 12.204V13.725C21.9165 15.695 21.9145 17.101 21.7765 18.168C21.6405 19.216 21.3835 19.824 20.9565 20.267C20.5315 20.706 19.9535 20.967 18.9525 21.106C17.9265 21.248 16.5735 21.25 14.6665 21.25H10.6665C8.7585 21.25 7.4065 21.248 6.3805 21.106C5.3795 20.966 4.8015 20.706 4.3775 20.266C3.9495 19.824 3.6925 19.216 3.5575 18.168C3.4175 17.101 3.4165 15.696 3.4165 13.725V12.204C3.4165 11.046 3.4165 10.229 3.4785 9.581C3.5375 8.949 3.6505 8.536 3.8435 8.183C4.0365 7.831 4.3175 7.522 4.8075 7.147C5.3105 6.761 5.9855 6.342 6.9465 5.745L8.9465 4.504Z" fill="#1A365D" fill-opacity="0.5"/>
</svg>
