<svg width="24" height="24" viewBox="0 0 24 24" fill="none" xmlns="http://www.w3.org/2000/svg">
<path d="M12.5 17.8438C14.0913 17.8438 15.6174 17.2116 16.7426 16.0864C17.8679 14.9612 18.5 13.435 18.5 11.8438C18.5 10.2525 17.8679 8.72633 16.7426 7.60111C15.6174 6.47589 14.0913 5.84375 12.5 5.84375C10.9087 5.84375 9.38258 6.47589 8.25736 7.60111C7.13214 8.72633 6.5 10.2525 6.5 11.8438C6.5 13.435 7.13214 14.9612 8.25736 16.0864C9.38258 17.2116 10.9087 17.8438 12.5 17.8438ZM12.5 4.34375C13.4849 4.34375 14.4602 4.53774 15.3701 4.91465C16.2801 5.29156 17.1069 5.84401 17.8033 6.54045C18.4997 7.23689 19.0522 8.06368 19.4291 8.97362C19.806 9.88357 20 10.8588 20 11.8438C20 13.8329 19.2098 15.7405 17.8033 17.1471C16.3968 18.5536 14.4891 19.3438 12.5 19.3438C8.3525 19.3438 5 15.9688 5 11.8438C5 9.85463 5.79018 7.94697 7.1967 6.54045C8.60322 5.13393 10.5109 4.34375 12.5 4.34375ZM12.875 8.09375V12.0312L16.25 14.0338L15.6875 14.9562L11.75 12.5938V8.09375H12.875Z" fill="#FF5C02"/>
</svg>
