<svg width="40" height="40" viewBox="0 0 40 40" fill="none" xmlns="http://www.w3.org/2000/svg">
<circle cx="20" cy="20" r="20" fill="#777777" fill-opacity="0.1"/>
<path d="M14.7502 17H10.2502C9.83774 17 9.50024 17.3375 9.50024 17.75V31.25C9.50024 31.6625 9.83774 32 10.2502 32H14.7502C15.1627 32 15.5002 31.6625 15.5002 31.25V17.75C15.5002 17.3375 15.1627 17 14.7502 17ZM14.7502 30.5H10.2502V24.5H14.7502V30.5ZM22.2502 14H17.7502C17.3377 14 17.0002 14.3375 17.0002 14.75V31.25C17.0002 31.6625 17.3377 32 17.7502 32H22.2502C22.6627 32 23.0002 31.6625 23.0002 31.25V14.75C23.0002 14.3375 22.6627 14 22.2502 14ZM22.2502 30.5H17.7502V23H22.2502V30.5ZM29.7502 11H25.2502C24.8377 11 24.5002 11.3375 24.5002 11.75V31.25C24.5002 31.6625 24.8377 32 25.2502 32H29.7502C30.1627 32 30.5002 31.6625 30.5002 31.25V11.75C30.5002 11.3375 30.1627 11 29.7502 11ZM29.7502 30.5H25.2502V21.5H29.7502V30.5Z" fill="#777777"/>
</svg>
