<svg width="20" height="20" viewBox="0 0 20 20" fill="none" xmlns="http://www.w3.org/2000/svg">
<path d="M14.1667 13.3335L17.5 10.0002M17.5 10.0002L14.1667 6.66683M17.5 10.0002H5.83333M10.8333 13.3335V14.1668C10.8333 14.8299 10.5699 15.4658 10.1011 15.9346C9.63226 16.4034 8.99637 16.6668 8.33333 16.6668H5C4.33696 16.6668 3.70107 16.4034 3.23223 15.9346C2.76339 15.4658 2.5 14.8299 2.5 14.1668V5.8335C2.5 5.17045 2.76339 4.53457 3.23223 4.06573C3.70107 3.59689 4.33696 3.3335 5 3.3335H8.33333C8.99637 3.3335 9.63226 3.59689 10.1011 4.06573C10.5699 4.53457 10.8333 5.17045 10.8333 5.8335V6.66683" stroke="#FF5C02" stroke-width="2" stroke-linecap="round" stroke-linejoin="round"/>
</svg>
