<svg width="18" height="19" viewBox="0 0 18 19" fill="none" xmlns="http://www.w3.org/2000/svg">
<path d="M10.7058 0.549805L13.3558 4.26314L15.1033 3.6673L16.6983 8.33314H17.5V18.3331H0V8.33314H0.425V8.3248L0.965 8.3298L10.7058 0.549805ZM6.58083 8.33314H14.9375L14.0733 5.80564L12.805 6.21147L6.58083 8.33314ZM5.2825 7.01397L11.7083 4.8248L10.3717 2.9498L5.2825 7.01397ZM3.33333 9.9998H1.66667V11.6665C2.10869 11.6665 2.53262 11.4909 2.84518 11.1783C3.15774 10.8658 3.33333 10.4418 3.33333 9.9998ZM11.6667 13.3331C11.6667 12.9501 11.5912 12.5708 11.4446 12.217C11.2981 11.8631 11.0832 11.5416 10.8124 11.2707C10.5416 10.9999 10.22 10.7851 9.86616 10.6385C9.51229 10.4919 9.13302 10.4165 8.75 10.4165C8.36698 10.4165 7.98771 10.4919 7.63384 10.6385C7.27997 10.7851 6.95844 10.9999 6.68761 11.2707C6.41677 11.5416 6.20193 11.8631 6.05535 12.217C5.90877 12.5708 5.83333 12.9501 5.83333 13.3331C5.83333 14.1067 6.14062 14.8486 6.68761 15.3955C7.23459 15.9425 7.97645 16.2498 8.75 16.2498C9.52355 16.2498 10.2654 15.9425 10.8124 15.3955C11.3594 14.8486 11.6667 14.1067 11.6667 13.3331ZM15.8333 16.6665V14.9998C15.3913 14.9998 14.9674 15.1754 14.6548 15.488C14.3423 15.8005 14.1667 16.2244 14.1667 16.6665H15.8333ZM14.1667 9.9998C14.1667 10.4418 14.3423 10.8658 14.6548 11.1783C14.9674 11.4909 15.3913 11.6665 15.8333 11.6665V9.9998H14.1667ZM1.66667 16.6665H3.33333C3.33333 16.2244 3.15774 15.8005 2.84518 15.488C2.53262 15.1754 2.10869 14.9998 1.66667 14.9998V16.6665Z" fill="white"/>
</svg>
