<svg width="20" height="20" viewBox="0 0 20 20" fill="none" xmlns="http://www.w3.org/2000/svg">
<g clip-path="url(#clip0_2630_4504)">
<path d="M10 19.9991C10.663 19.9991 11.2989 19.7357 11.7678 19.2669C12.2366 18.7981 12.5 18.1622 12.5 17.4991H7.5C7.5 18.1622 7.76339 18.7981 8.23223 19.2669C8.70107 19.7357 9.33696 19.9991 10 19.9991ZM11.2437 1.37289C11.2612 1.19908 11.242 1.02355 11.1875 0.857607C11.1329 0.691666 11.0442 0.539003 10.927 0.409463C10.8098 0.279924 10.6667 0.176384 10.5071 0.105521C10.3474 0.0346587 10.1747 -0.00195313 10 -0.00195312C9.82532 -0.00195313 9.65258 0.0346587 9.49292 0.105521C9.33325 0.176384 9.19022 0.279924 9.07303 0.409463C8.95584 0.539003 8.8671 0.691666 8.81254 0.857607C8.75798 1.02355 8.7388 1.19908 8.75625 1.37289C7.34318 1.65983 6.07279 2.42653 5.16039 3.54306C4.24799 4.65958 3.74971 6.05723 3.75 7.49914C3.75 8.87164 3.125 14.9991 1.25 16.2491H18.75C16.875 14.9991 16.25 8.87164 16.25 7.49914C16.25 4.47414 14.1 1.94914 11.2437 1.37289Z" fill="#FF5C02"/>
</g>
<defs>
<clipPath id="clip0_2630_4504">
<rect width="20" height="20" fill="white"/>
</clipPath>
</defs>
</svg>
