<svg width="24" height="24" viewBox="0 0 24 24" fill="none" xmlns="http://www.w3.org/2000/svg">
<path d="M18.0749 1.55371L22.2479 5.90371V22.4457H6.65918V22.4997H22.3012V5.95846L18.0749 1.55371Z" fill="#909090"/>
<path d="M18.0235 1.5H6.6062V22.446H22.2482V5.90475L18.0235 1.5Z" fill="#F4F4F4"/>
<path d="M6.49123 2.625H1.69873V7.74525H16.7737V2.625H6.49123Z" fill="#7A7B7C"/>
<path d="M16.8539 7.65818H1.79614V2.53418H16.8539V7.65818Z" fill="#DD2025"/>
<path d="M6.78909 3.40099H5.80884V7.00099H6.57984V5.78674L6.75009 5.79649C6.91557 5.79421 7.07954 5.76456 7.23534 5.70874C7.37231 5.66223 7.49819 5.58793 7.60509 5.49049C7.71471 5.39857 7.80084 5.28184 7.85634 5.14999C7.93227 4.93152 7.95916 4.69902 7.93509 4.46899C7.93081 4.30463 7.90199 4.14183 7.84959 3.98599C7.80236 3.87335 7.73214 3.7718 7.64342 3.68786C7.55469 3.60391 7.44942 3.53941 7.33434 3.49849C7.23513 3.46174 7.1323 3.4356 7.02759 3.42049C6.94849 3.40761 6.86848 3.40109 6.78834 3.40099M6.64659 5.12149H6.57984V4.01149H6.72459C6.78847 4.00688 6.85258 4.01669 6.91216 4.04019C6.97175 4.06368 7.02529 4.10027 7.06884 4.14724C7.15908 4.268 7.20728 4.41499 7.20609 4.56574C7.20609 4.75024 7.20609 4.91749 7.03959 5.03524C6.91967 5.10129 6.78311 5.13175 6.64659 5.12149ZM9.39984 3.39124C9.31659 3.39124 9.23559 3.39724 9.17859 3.39949L9.00009 3.40399H8.41509V7.00399H9.10359C9.36667 7.01076 9.62856 6.96617 9.87459 6.87274C10.0727 6.79451 10.248 6.66791 10.3846 6.50449C10.5184 6.34035 10.614 6.14845 10.6643 5.94274C10.7235 5.71018 10.7522 5.47094 10.7498 5.23099C10.7645 4.94761 10.7426 4.66351 10.6846 4.38574C10.6291 4.18151 10.5263 3.99319 10.3846 3.83599C10.2734 3.70887 10.1367 3.60664 9.98334 3.53599C9.85196 3.47509 9.71371 3.43026 9.57159 3.40249C9.51507 3.39322 9.45785 3.38896 9.40059 3.38974M9.26409 6.34249H9.18909V4.04449H9.19884C9.35346 4.02661 9.50993 4.05451 9.64884 4.12474C9.75058 4.20598 9.83349 4.30834 9.89184 4.42474C9.9548 4.54724 9.9911 4.68169 9.99834 4.81924C10.0051 4.98424 9.99834 5.11924 9.99834 5.23099C10.0011 5.35971 9.99283 5.48843 9.97359 5.61574C9.94999 5.74629 9.90728 5.87265 9.84684 5.99074C9.77855 6.10087 9.68528 6.19337 9.57459 6.26074C9.48212 6.32074 9.37249 6.34868 9.26259 6.34024M13.0726 3.40399H11.2501V7.00399H12.0211V5.57599H12.9961V4.90699H12.0211V4.07299H13.0711V3.40399" fill="#464648"/>
<path d="M16.3358 15.1911C16.3358 15.1911 18.7268 14.7576 18.7268 15.5744C18.7268 16.3911 17.2455 16.0589 16.3358 15.1911ZM14.568 15.2534C14.1881 15.3371 13.8178 15.46 13.4633 15.6201L13.7633 14.9451C14.0633 14.2701 14.3745 13.3499 14.3745 13.3499C14.7316 13.953 15.1482 14.5188 15.618 15.0389C15.2643 15.0916 14.9138 15.1637 14.568 15.2549V15.2534ZM13.6215 10.3784C13.6215 9.66664 13.8518 9.47239 14.031 9.47239C14.2103 9.47239 14.412 9.55864 14.4188 10.1766C14.3603 10.798 14.2302 11.4106 14.031 12.0021C13.7573 11.5058 13.616 10.9474 13.6208 10.3806L13.6215 10.3784ZM10.1348 18.2654C9.40126 17.8266 11.673 16.4759 12.0848 16.4324C12.0825 16.4331 10.9028 18.7244 10.1348 18.2654ZM19.425 15.6711C19.4175 15.5961 19.35 14.7659 17.8725 14.8011C17.2566 14.7903 16.641 14.8338 16.0328 14.9309C15.4432 14.3374 14.9357 13.6677 14.5238 12.9396C14.7831 12.1891 14.9403 11.4071 14.991 10.6146C14.9693 9.71464 14.754 9.19864 14.064 9.20614C13.374 9.21364 13.2735 9.81739 13.3643 10.7159C13.4531 11.3197 13.6208 11.9092 13.863 12.4694C13.863 12.4694 13.5443 13.4616 13.1228 14.4486C12.7013 15.4356 12.4133 15.9531 12.4133 15.9531C11.6802 16.1915 10.9902 16.546 10.3695 17.0031C9.75151 17.5784 9.50026 18.0201 9.82576 18.4619C10.1063 18.8429 11.088 18.9291 11.9655 17.7794C12.431 17.185 12.8569 16.5606 13.2405 15.9104C13.2405 15.9104 14.5785 15.5436 14.9948 15.4431C15.411 15.3426 15.9143 15.2631 15.9143 15.2631C15.9143 15.2631 17.136 16.4924 18.3143 16.4489C19.4925 16.4054 19.4355 15.7446 19.428 15.6726" fill="#DD2025"/>
<path d="M17.9656 1.55762V5.96237H22.1903L17.9656 1.55762Z" fill="#909090"/>
<path d="M18.0232 1.5V5.90475H22.2479L18.0232 1.5Z" fill="#F4F4F4"/>
<path d="M6.73123 3.3424H5.75098V6.9424H6.52498V5.7289L6.69598 5.73865C6.86146 5.73636 7.02542 5.70671 7.18123 5.6509C7.31819 5.60439 7.44407 5.53009 7.55098 5.43265C7.65978 5.34047 7.74512 5.22377 7.79998 5.09215C7.87591 4.87368 7.9028 4.64117 7.87873 4.41115C7.87445 4.24678 7.84563 4.08399 7.79323 3.92815C7.746 3.8155 7.67578 3.71396 7.58706 3.63001C7.49833 3.54607 7.39306 3.48157 7.27798 3.44065C7.17831 3.40354 7.07498 3.37714 6.96973 3.3619C6.89063 3.34901 6.81062 3.34249 6.73048 3.3424M6.58873 5.0629H6.52198V3.9529H6.66748C6.73136 3.94829 6.79547 3.9581 6.85505 3.98159C6.91464 4.00509 6.96818 4.04167 7.01173 4.08865C7.10197 4.20941 7.15017 4.3564 7.14898 4.50715C7.14898 4.69165 7.14898 4.8589 6.98248 4.97665C6.86256 5.0427 6.726 5.07241 6.58948 5.06215M9.34198 3.33265C9.25873 3.33265 9.17773 3.33865 9.12073 3.3409L8.94448 3.3454H8.35948V6.94539H9.04798C9.31106 6.95216 9.57295 6.90758 9.81898 6.81415C10.0171 6.73592 10.1924 6.60931 10.329 6.4459C10.4628 6.28176 10.5584 6.08986 10.6087 5.88415C10.6679 5.65159 10.6966 5.41234 10.6942 5.1724C10.7089 4.88901 10.687 4.60492 10.629 4.32715C10.5735 4.12291 10.4707 3.9346 10.329 3.7774C10.2178 3.65028 10.0811 3.54805 9.92773 3.4774C9.79635 3.41649 9.6581 3.37167 9.51598 3.3439C9.45946 3.33463 9.40224 3.33036 9.34498 3.33115M9.20848 6.2839H9.13348V3.9859H9.14323C9.29785 3.96802 9.45432 3.99592 9.59323 4.06615C9.69497 4.14739 9.77788 4.24974 9.83623 4.36615C9.89919 4.48865 9.93549 4.6231 9.94273 4.76065C9.94948 4.92565 9.94273 5.06065 9.94273 5.1724C9.9455 5.30112 9.93722 5.42984 9.91798 5.55715C9.89438 5.68769 9.85167 5.81405 9.79123 5.93215C9.72294 6.04228 9.62967 6.13478 9.51898 6.20215C9.42651 6.26215 9.31688 6.29008 9.20698 6.28165M13.0147 3.3454H11.1922V6.94539H11.9632V5.5174H12.9382V4.8484H11.9632V4.0144H13.0132V3.3454" fill="white"/>
</svg>
