<svg width="24" height="24" viewBox="0 0 24 24" fill="none" xmlns="http://www.w3.org/2000/svg">
<g clip-path="url(#clip0_2637_5887)">
<path d="M12 7.00001L16 11M12 7.00001L8.00001 11.167M12 7.00001V16M11.576 1.42401C11.6885 1.31165 11.841 1.24854 12 1.24854C12.159 1.24854 12.3115 1.31165 12.424 1.42401L22.576 11.576C22.6884 11.6885 22.7515 11.841 22.7515 12C22.7515 12.159 22.6884 12.3115 22.576 12.424L12.424 22.576C12.3115 22.6884 12.159 22.7515 12 22.7515C11.841 22.7515 11.6885 22.6884 11.576 22.576L1.42401 12.424C1.31165 12.3115 1.24854 12.159 1.24854 12C1.24854 11.841 1.31165 11.6885 1.42401 11.576L11.576 1.42401Z" stroke="#FF5C02" stroke-width="1.5" stroke-linecap="round" stroke-linejoin="round"/>
</g>
<defs>
<clipPath id="clip0_2637_5887">
<rect width="24" height="24" fill="white"/>
</clipPath>
</defs>
</svg>
