<svg width="25" height="24" viewBox="0 0 25 24" fill="none" xmlns="http://www.w3.org/2000/svg">
<path d="M4.75 4H8.76V2H2.75V8H4.75V4ZM4.75 16H2.75V22H8.76V20H4.75V16ZM20.75 20H16.75V22H22.75V16H20.75V20ZM16.75 4H20.75V8H22.75V2H16.75V4Z" fill="#1A365D" fill-opacity="0.5"/>
<path d="M5.75 11H11.75V5H5.75V11ZM7.75 7H9.75V9H7.75V7ZM5.75 19H11.75V13H5.75V19ZM7.75 15H9.75V17H7.75V15ZM19.75 5H13.75V11H19.75V5ZM17.75 9H15.75V7H17.75V9ZM13.76 13H15.76V15H13.76V13ZM15.76 15H17.76V17H15.76V15ZM17.76 17H19.76V19H17.76V17ZM17.76 13H19.76V15H17.76V13Z" fill="#1A365D" fill-opacity="0.5"/>
</svg>
