<svg width="21" height="20" viewBox="0 0 21 20" fill="none" xmlns="http://www.w3.org/2000/svg">
<path d="M2.75 12.4998V13.9998C2.75 14.9332 2.75 15.3998 2.93167 15.7565C3.09145 16.0701 3.34641 16.3251 3.66 16.4848C4.01583 16.6665 4.4825 16.6665 5.41417 16.6665H17.75M2.75 12.4998V4.1665M2.75 12.4998L5.96083 9.82484L5.96417 9.82234C6.545 9.33817 6.83583 9.09567 7.15167 8.99734C7.52428 8.88083 7.92596 8.89882 8.28667 9.04817C8.5925 9.17567 8.86 9.44317 9.39667 9.97984L9.40167 9.98484C9.94667 10.5298 10.2192 10.8032 10.53 10.929C10.8979 11.0789 11.3072 11.0925 11.6842 10.9673C12.0033 10.8607 12.295 10.6057 12.8783 10.0957L17.75 5.83317" stroke="white" stroke-width="1.66667" stroke-linecap="round" stroke-linejoin="round"/>
</svg>
