<svg width="25" height="24" viewBox="0 0 25 24" fill="none" xmlns="http://www.w3.org/2000/svg">
<path fill-rule="evenodd" clip-rule="evenodd" d="M12.5605 1.69205C12.463 1.6477 12.3571 1.62476 12.25 1.62476C12.1429 1.62476 12.037 1.6477 11.9395 1.69205L2.31551 6.06755C2.1842 6.12692 2.07278 6.22286 1.99457 6.3439C1.91637 6.46494 1.87468 6.60594 1.87451 6.75005V16.3755C1.87456 16.5104 1.91095 16.6427 1.97984 16.7586C2.04874 16.8744 2.1476 16.9696 2.26601 17.034L11.8915 22.284C12.0017 22.3442 12.1252 22.3757 12.2508 22.3757C12.3763 22.3757 12.4998 22.3442 12.61 22.284L15.25 20.844V14.25H16.75V20.025L18.25 19.2075V12.75H19.75V18.3885L22.234 17.034C22.3524 16.9693 22.4511 16.8738 22.5197 16.7576C22.5883 16.6415 22.6244 16.509 22.624 16.374V6.75005C22.6241 6.60627 22.5829 6.4655 22.5052 6.34449C22.4276 6.22349 22.3168 6.12736 22.186 6.06755L12.5605 1.69205ZM3.37451 15.93V7.91555L11.5 11.6085V20.361L3.37451 15.93ZM12.25 10.3005L20.065 6.75005L12.25 3.19955L4.43801 6.75005L12.25 10.3005Z" fill="#FF5C02"/>
</svg>
