<svg width="24" height="24" viewBox="0 0 24 24" fill="none" xmlns="http://www.w3.org/2000/svg">
<g clip-path="url(#clip0_2637_5895)">
<path d="M12 11.9058C14.2094 11.9058 16 10.1151 16 7.90576C16 5.69639 14.2094 3.90576 12 3.90576C9.79063 3.90576 8 5.69639 8 7.90576C8 10.1151 9.79063 11.9058 12 11.9058ZM14.9937 12.9245L13.5 18.9058L12.5 14.6558L13.5 12.9058H10.5L11.5 14.6558L10.5 18.9058L9.00625 12.9245C6.77812 13.0308 5 14.8526 5 17.1058V18.4058C5 19.2339 5.67188 19.9058 6.5 19.9058H17.5C18.3281 19.9058 19 19.2339 19 18.4058V17.1058C19 14.8526 17.2219 13.0308 14.9937 12.9245Z" fill="#FF5C02"/>
</g>
<defs>
<clipPath id="clip0_2637_5895">
<rect width="14" height="16" fill="white" transform="translate(5 3.90576)"/>
</clipPath>
</defs>
</svg>
