<svg width="25" height="25" viewBox="0 0 25 25" fill="none" xmlns="http://www.w3.org/2000/svg">
<path fill-rule="evenodd" clip-rule="evenodd" d="M12.3331 1.75C11.0733 1.75 9.8651 2.25044 8.97431 3.14124C8.08351 4.03204 7.58306 5.24022 7.58306 6.5C7.58306 7.75978 8.08351 8.96796 8.97431 9.85876C9.8651 10.7496 11.0733 11.25 12.3331 11.25C13.5928 11.25 14.801 10.7496 15.6918 9.85876C16.5826 8.96796 17.0831 7.75978 17.0831 6.5C17.0831 5.24022 16.5826 4.03204 15.6918 3.14124C14.801 2.25044 13.5928 1.75 12.3331 1.75ZM9.08306 6.5C9.08306 5.63805 9.42547 4.8114 10.035 4.2019C10.6445 3.59241 11.4711 3.25 12.3331 3.25C13.195 3.25 14.0217 3.59241 14.6312 4.2019C15.2407 4.8114 15.5831 5.63805 15.5831 6.5C15.5831 7.36195 15.2407 8.1886 14.6312 8.7981C14.0217 9.40759 13.195 9.75 12.3331 9.75C11.4711 9.75 10.6445 9.40759 10.035 8.7981C9.42547 8.1886 9.08306 7.36195 9.08306 6.5ZM12.3331 12.75C10.0201 12.75 7.88806 13.276 6.30906 14.164C4.75306 15.04 3.58306 16.366 3.58306 18V18.102C3.58206 19.264 3.58106 20.722 4.86006 21.764C5.48906 22.276 6.37006 22.641 7.56006 22.881C8.75206 23.123 10.3071 23.25 12.3331 23.25C14.3591 23.25 15.9131 23.123 17.1071 22.881C18.2971 22.641 19.1771 22.276 19.8071 21.764C21.0861 20.722 21.0841 19.264 21.0831 18.102V18C21.0831 16.366 19.9131 15.04 18.3581 14.164C16.7781 13.276 14.6471 12.75 12.3331 12.75ZM5.08306 18C5.08306 17.149 5.70506 16.225 7.04406 15.472C8.36006 14.732 10.2281 14.25 12.3341 14.25C14.4381 14.25 16.3061 14.732 17.6221 15.472C18.9621 16.225 19.5831 17.149 19.5831 18C19.5831 19.308 19.5431 20.044 18.8591 20.6C18.4891 20.902 17.8691 21.197 16.8091 21.411C15.7521 21.625 14.3071 21.75 12.3331 21.75C10.3591 21.75 8.91306 21.625 7.85706 21.411C6.79706 21.197 6.17706 20.902 5.80706 20.601C5.12306 20.044 5.08306 19.308 5.08306 18Z" fill="#1A365D" fill-opacity="0.5"/>
</svg>
