<svg width="25" height="24" viewBox="0 0 25 24" fill="none" xmlns="http://www.w3.org/2000/svg">
<path d="M12.333 13C14.729 13 16.908 13.694 18.511 14.671C19.311 15.161 19.995 15.736 20.489 16.361C20.975 16.977 21.333 17.713 21.333 18.5C21.333 19.345 20.922 20.011 20.33 20.486C19.77 20.936 19.031 21.234 18.246 21.442C16.668 21.859 14.562 22 12.333 22C10.104 22 7.99801 21.86 6.42001 21.442C5.63501 21.234 4.89601 20.936 4.33601 20.486C3.74301 20.01 3.33301 19.345 3.33301 18.5C3.33301 17.713 3.69101 16.977 4.17701 16.361C4.67101 15.736 5.35401 15.161 6.15501 14.671C7.75801 13.694 9.93801 13 12.333 13Z" fill="#FF5C02"/>
<path opacity="0.3" d="M12.3332 2C16.1822 2 18.5882 6.167 16.6632 9.5C16.2244 10.2601 15.5932 10.8913 14.8332 11.3301C14.0731 11.7689 13.2109 12 12.3332 12C8.48424 12 6.07824 7.833 8.00324 4.5C8.44207 3.73992 9.07324 3.10875 9.83331 2.6699C10.5934 2.23106 11.4556 2.00002 12.3332 2Z" fill="#FF5C02"/>
</svg>
