<svg width="24" height="24" viewBox="0 0 24 24" fill="none" xmlns="http://www.w3.org/2000/svg">
<path d="M21.6045 2.25001H7.27878C7.16133 2.24971 7.04497 2.2726 6.93637 2.31737C6.82778 2.36213 6.72909 2.4279 6.64597 2.51088C6.56285 2.59387 6.49692 2.69244 6.45197 2.80096C6.40702 2.90948 6.38393 3.0258 6.38403 3.14325V7.125L14.6858 9.5625L22.5 7.125V3.14325C22.5001 3.02573 22.477 2.90935 22.432 2.80079C22.387 2.69222 22.321 2.59361 22.2378 2.51061C22.1546 2.42762 22.0559 2.36187 21.9472 2.31715C21.8385 2.27243 21.7221 2.24961 21.6045 2.25001Z" fill="#41A5EE"/>
<path d="M22.5 7.125H6.38403V12L14.6858 13.4625L22.5 12V7.125Z" fill="#2B7CD3"/>
<path d="M6.38403 12V16.875L14.1975 17.85L22.5 16.875V12H6.38403Z" fill="#185ABD"/>
<path d="M7.27878 21.75H21.6038C21.7214 21.7505 21.8379 21.7277 21.9467 21.6831C22.0554 21.6384 22.1543 21.5727 22.2376 21.4897C22.3209 21.4067 22.3869 21.308 22.432 21.1994C22.477 21.0908 22.5001 20.9743 22.5 20.8567V16.875H6.38403V20.8567C6.38393 20.9742 6.40702 21.0905 6.45197 21.199C6.49692 21.3076 6.56285 21.4061 6.64597 21.4891C6.72909 21.5721 6.82778 21.6379 6.93637 21.6826C7.04497 21.7274 7.16133 21.7503 7.27878 21.75Z" fill="#103F91"/>
<path opacity="0.1" d="M12.3255 6.15039H6.38403V18.3379H12.3255C12.5623 18.3367 12.789 18.2423 12.9567 18.0751C13.1243 17.9079 13.2193 17.6814 13.221 17.4446V7.04364C13.2193 6.80689 13.1243 6.58038 12.9567 6.41318C12.789 6.24598 12.5623 6.15157 12.3255 6.15039Z" fill="black"/>
<path opacity="0.2" d="M11.8373 6.6377H6.38403V18.8252H11.8373C12.074 18.824 12.3008 18.7296 12.4684 18.5624C12.636 18.3952 12.731 18.1687 12.7328 17.9319V7.53095C12.731 7.2942 12.636 7.06769 12.4684 6.90049C12.3008 6.73329 12.074 6.63887 11.8373 6.6377Z" fill="black"/>
<path opacity="0.2" d="M11.8373 6.6377H6.38403V17.8502H11.8373C12.074 17.849 12.3008 17.7546 12.4684 17.5874C12.636 17.4202 12.731 17.1937 12.7328 16.9569V7.53095C12.731 7.2942 12.636 7.06769 12.4684 6.90049C12.3008 6.73329 12.074 6.63887 11.8373 6.6377Z" fill="black"/>
<path opacity="0.2" d="M11.349 6.6377H6.38403V17.8502H11.349C11.5858 17.849 11.8125 17.7546 11.9802 17.5874C12.1478 17.4202 12.2428 17.1937 12.2445 16.9569V7.53095C12.2428 7.2942 12.1478 7.06769 11.9802 6.90049C11.8125 6.73329 11.5858 6.63887 11.349 6.6377Z" fill="black"/>
<path d="M2.3955 6.6377H11.349C11.5862 6.6375 11.8137 6.73147 11.9816 6.89897C12.1496 7.06647 12.2441 7.29378 12.2445 7.53095V16.4694C12.2441 16.7066 12.1496 16.9339 11.9816 17.1014C11.8137 17.2689 11.5862 17.3629 11.349 17.3627H2.3955C2.27798 17.3631 2.16154 17.3403 2.05286 17.2956C1.94418 17.2508 1.84541 17.1851 1.7622 17.1021C1.679 17.0191 1.613 16.9205 1.56801 16.8119C1.52301 16.7034 1.4999 16.587 1.5 16.4694V7.53095C1.4999 7.41343 1.52301 7.29705 1.56801 7.18848C1.613 7.07991 1.679 6.9813 1.7622 6.89831C1.84541 6.81531 1.94418 6.74957 2.05286 6.70485C2.16154 6.66012 2.27798 6.63731 2.3955 6.6377Z" fill="url(#paint0_linear_917_3837)"/>
<path d="M5.17508 13.4908C5.19258 13.6288 5.20408 13.7491 5.20958 13.8516H5.23058C5.23808 13.7541 5.25433 13.6366 5.27933 13.4991C5.31683 13.2928 5.32583 13.2456 5.34608 13.1503L6.28733 9.09509H7.50533L8.48033 13.0896C8.53663 13.3368 8.57721 13.5873 8.60183 13.8396H8.61833C8.63704 13.594 8.67085 13.3498 8.71958 13.1083L9.49883 9.08984H10.6066L9.23858 14.9008H7.94333L7.01558 11.0563C6.98858 10.9453 6.95808 10.8008 6.92408 10.6228C6.89008 10.4448 6.86908 10.3148 6.86108 10.2328H6.84533C6.83483 10.3273 6.81383 10.4676 6.78233 10.6536C6.75083 10.8396 6.72583 10.9776 6.70733 11.0676L5.83508 14.9031H4.51808L3.14258 9.09509H4.26758L5.11583 13.1586C5.14055 13.2684 5.16032 13.3793 5.17508 13.4908Z" fill="white"/>
<defs>
<linearGradient id="paint0_linear_917_3837" x1="3.3705" y1="5.9357" x2="10.374" y2="18.0647" gradientUnits="userSpaceOnUse">
<stop stop-color="#2368C4"/>
<stop offset="0.5" stop-color="#1A5DBE"/>
<stop offset="1" stop-color="#1146AC"/>
</linearGradient>
</defs>
</svg>
