<svg width="24" height="24" viewBox="0 0 24 24" fill="none" xmlns="http://www.w3.org/2000/svg">
<path d="M21.6043 2.25001H7.27854C7.16108 2.24971 7.04472 2.2726 6.93613 2.31737C6.82754 2.36213 6.72885 2.4279 6.64573 2.51088C6.5626 2.59387 6.49667 2.69244 6.45173 2.80096C6.40678 2.90948 6.38369 3.0258 6.38379 3.14325V7.125L14.6855 9.5625L22.4998 7.125V3.14325C22.4999 3.02573 22.4768 2.90935 22.4318 2.80079C22.3868 2.69222 22.3208 2.59361 22.2376 2.51061C22.1544 2.42762 22.0556 2.36187 21.9469 2.31715C21.8383 2.27243 21.7218 2.24961 21.6043 2.25001Z" fill="#41A5EE"/>
<path d="M22.4998 7.125H6.38379V12L14.6855 13.4625L22.4998 12V7.125Z" fill="#2B7CD3"/>
<path d="M6.38379 12V16.875L14.1973 17.85L22.4998 16.875V12H6.38379Z" fill="#185ABD"/>
<path d="M7.27854 21.75H21.6035C21.7211 21.7505 21.8376 21.7277 21.9464 21.6831C22.0552 21.6384 22.154 21.5727 22.2373 21.4897C22.3206 21.4067 22.3867 21.308 22.4317 21.1994C22.4768 21.0908 22.4999 20.9743 22.4998 20.8567V16.875H6.38379V20.8567C6.38369 20.9742 6.40678 21.0905 6.45173 21.199C6.49667 21.3076 6.5626 21.4061 6.64573 21.4891C6.72885 21.5721 6.82754 21.6379 6.93613 21.6826C7.04472 21.7274 7.16108 21.7503 7.27854 21.75Z" fill="#103F91"/>
<path opacity="0.1" d="M12.3253 6.15039H6.38379V18.3379H12.3253C12.562 18.3367 12.7888 18.2423 12.9564 18.0751C13.124 17.9079 13.219 17.6814 13.2208 17.4446V7.04364C13.219 6.80689 13.124 6.58038 12.9564 6.41318C12.7888 6.24598 12.562 6.15157 12.3253 6.15039Z" fill="black"/>
<path opacity="0.2" d="M11.837 6.6377H6.38379V18.8252H11.837C12.0738 18.824 12.3005 18.7296 12.4682 18.5624C12.6358 18.3952 12.7308 18.1687 12.7325 17.9319V7.53095C12.7308 7.2942 12.6358 7.06769 12.4682 6.90049C12.3005 6.73329 12.0738 6.63887 11.837 6.6377Z" fill="black"/>
<path opacity="0.2" d="M11.837 6.6377H6.38379V17.8502H11.837C12.0738 17.849 12.3005 17.7546 12.4682 17.5874C12.6358 17.4202 12.7308 17.1937 12.7325 16.9569V7.53095C12.7308 7.2942 12.6358 7.06769 12.4682 6.90049C12.3005 6.73329 12.0738 6.63887 11.837 6.6377Z" fill="black"/>
<path opacity="0.2" d="M11.3488 6.6377H6.38379V17.8502H11.3488C11.5855 17.849 11.8123 17.7546 11.9799 17.5874C12.1475 17.4202 12.2425 17.1937 12.2443 16.9569V7.53095C12.2425 7.2942 12.1475 7.06769 11.9799 6.90049C11.8123 6.73329 11.5855 6.63887 11.3488 6.6377Z" fill="black"/>
<path d="M2.3955 6.6377H11.349C11.5862 6.6375 11.8137 6.73147 11.9816 6.89897C12.1496 7.06647 12.2441 7.29378 12.2445 7.53095V16.4694C12.2441 16.7066 12.1496 16.9339 11.9816 17.1014C11.8137 17.2689 11.5862 17.3629 11.349 17.3627H2.3955C2.27798 17.3631 2.16154 17.3403 2.05286 17.2956C1.94418 17.2508 1.84541 17.1851 1.7622 17.1021C1.679 17.0191 1.613 16.9205 1.56801 16.8119C1.52301 16.7034 1.4999 16.587 1.5 16.4694V7.53095C1.4999 7.41343 1.52301 7.29705 1.56801 7.18848C1.613 7.07991 1.679 6.9813 1.7622 6.89831C1.84541 6.81531 1.94418 6.74957 2.05286 6.70485C2.16154 6.66012 2.27798 6.63731 2.3955 6.6377Z" fill="url(#paint0_linear_2637_6004)"/>
<path d="M5.17508 13.4908C5.19258 13.6288 5.20408 13.7491 5.20958 13.8516H5.23058C5.23808 13.7541 5.25433 13.6366 5.27933 13.4991C5.31683 13.2928 5.32583 13.2456 5.34608 13.1503L6.28733 9.09509H7.50533L8.48033 13.0896C8.53663 13.3368 8.57721 13.5873 8.60183 13.8396H8.61833C8.63704 13.594 8.67085 13.3498 8.71958 13.1083L9.49883 9.08984H10.6066L9.23858 14.9008H7.94333L7.01558 11.0563C6.98858 10.9453 6.95808 10.8008 6.92408 10.6228C6.89008 10.4448 6.86908 10.3148 6.86108 10.2328H6.84533C6.83483 10.3273 6.81383 10.4676 6.78233 10.6536C6.75083 10.8396 6.72583 10.9776 6.70733 11.0676L5.83508 14.9031H4.51808L3.14258 9.09509H4.26758L5.11583 13.1586C5.14055 13.2684 5.16032 13.3793 5.17508 13.4908Z" fill="white"/>
<defs>
<linearGradient id="paint0_linear_2637_6004" x1="3.3705" y1="5.9357" x2="10.374" y2="18.0647" gradientUnits="userSpaceOnUse">
<stop stop-color="#2368C4"/>
<stop offset="0.5" stop-color="#1A5DBE"/>
<stop offset="1" stop-color="#1146AC"/>
</linearGradient>
</defs>
</svg>
