<svg width="24" height="24" viewBox="0 0 24 24" fill="none" xmlns="http://www.w3.org/2000/svg">
<path d="M14.6858 11.5123L6.38403 10.0498V20.8566C6.38393 20.974 6.40702 21.0903 6.45197 21.1989C6.49692 21.3074 6.56285 21.4059 6.64597 21.4889C6.72909 21.5719 6.82778 21.6377 6.93637 21.6824C7.04497 21.7272 7.16133 21.7501 7.27878 21.7498H21.6038C21.7214 21.7503 21.8379 21.7276 21.9467 21.6829C22.0554 21.6382 22.1543 21.5725 22.2376 21.4895C22.3209 21.4065 22.3869 21.3078 22.432 21.1992C22.477 21.0906 22.5001 20.9741 22.5 20.8566V16.8748L14.6858 11.5123Z" fill="#185C37"/>
<path d="M14.6858 2.25H7.27878C7.16133 2.24971 7.04497 2.2726 6.93637 2.31736C6.82778 2.36213 6.72909 2.42789 6.64597 2.51088C6.56285 2.59386 6.49692 2.69244 6.45197 2.80096C6.40702 2.90947 6.38393 3.0258 6.38403 3.14325V7.125L14.6858 12L19.0815 13.4625L22.5 12V7.125L14.6858 2.25Z" fill="#21A366"/>
<path d="M6.38403 7.125H14.6858V12H6.38403V7.125Z" fill="#107C41"/>
<path opacity="0.1" d="M12.3255 6.15039H6.38403V18.3379H12.3255C12.5623 18.3367 12.789 18.2423 12.9567 18.0751C13.1243 17.9079 13.2193 17.6814 13.221 17.4446V7.04364C13.2193 6.80689 13.1243 6.58038 12.9567 6.41318C12.789 6.24598 12.5623 6.15157 12.3255 6.15039Z" fill="black"/>
<path opacity="0.2" d="M11.8373 6.6377H6.38403V18.8252H11.8373C12.074 18.824 12.3008 18.7296 12.4684 18.5624C12.636 18.3952 12.731 18.1687 12.7328 17.9319V7.53095C12.731 7.2942 12.636 7.06769 12.4684 6.90049C12.3008 6.73329 12.074 6.63887 11.8373 6.6377Z" fill="black"/>
<path opacity="0.2" d="M11.8373 6.6377H6.38403V17.8502H11.8373C12.074 17.849 12.3008 17.7546 12.4684 17.5874C12.636 17.4202 12.731 17.1937 12.7328 16.9569V7.53095C12.731 7.2942 12.636 7.06769 12.4684 6.90049C12.3008 6.73329 12.074 6.63887 11.8373 6.6377Z" fill="black"/>
<path opacity="0.2" d="M11.349 6.6377H6.38403V17.8502H11.349C11.5858 17.849 11.8125 17.7546 11.9802 17.5874C12.1478 17.4202 12.2428 17.1937 12.2445 16.9569V7.53095C12.2428 7.2942 12.1478 7.06769 11.9802 6.90049C11.8125 6.73329 11.5858 6.63887 11.349 6.6377Z" fill="black"/>
<path d="M2.3955 6.6377H11.349C11.5862 6.6375 11.8137 6.73147 11.9816 6.89897C12.1496 7.06647 12.2441 7.29378 12.2445 7.53095V16.4694C12.2441 16.7066 12.1496 16.9339 11.9816 17.1014C11.8137 17.2689 11.5862 17.3629 11.349 17.3627H2.3955C2.27798 17.3631 2.16154 17.3403 2.05286 17.2956C1.94418 17.2508 1.84541 17.1851 1.7622 17.1021C1.679 17.0191 1.613 16.9205 1.56801 16.8119C1.52301 16.7034 1.4999 16.587 1.5 16.4694V7.53095C1.4999 7.41343 1.52301 7.29705 1.56801 7.18848C1.613 7.07991 1.679 6.9813 1.7622 6.89831C1.84541 6.81531 1.94418 6.74957 2.05286 6.70485C2.16154 6.66012 2.27798 6.63731 2.3955 6.6377Z" fill="url(#paint0_linear_917_3815)"/>
<path d="M4.2749 14.9042L6.15815 11.9912L4.43315 9.09473H5.8184L6.75965 10.9495C6.84665 11.125 6.90965 11.2555 6.93815 11.3425H6.9509C7.0124 11.202 7.0774 11.0655 7.1459 10.933L8.1524 9.09773H9.4274L7.65815 11.9777L9.4724 14.9065H8.11565L7.02815 12.8732C6.9778 12.7857 6.9349 12.6942 6.8999 12.5995H6.8819C6.85012 12.6918 6.80784 12.7801 6.7559 12.8627L5.63615 14.9042H4.2749Z" fill="white"/>
<path d="M21.6045 2.25001H14.6858V7.12501H22.5V3.14326C22.5001 3.02573 22.477 2.90935 22.432 2.80079C22.387 2.69222 22.321 2.59361 22.2378 2.51061C22.1546 2.42762 22.0559 2.36187 21.9472 2.31715C21.8385 2.27243 21.7221 2.24961 21.6045 2.25001Z" fill="#33C481"/>
<path d="M14.6858 12H22.5V16.875H14.6858V12Z" fill="#107C41"/>
<defs>
<linearGradient id="paint0_linear_917_3815" x1="3.3705" y1="5.9357" x2="10.374" y2="18.0647" gradientUnits="userSpaceOnUse">
<stop stop-color="#18884F"/>
<stop offset="0.5" stop-color="#117E43"/>
<stop offset="1" stop-color="#0B6631"/>
</linearGradient>
</defs>
</svg>
